#Comment line ignore any data following # character 
#Hierarchical Translation and Rotation (.htr) file 
[Header]	
#Header keywords are followed by a single value 
FileType HTR		#Single word string
DataType HTRS		#Translation followed by rotation and scale data
FileVersion 1		#integer
NumSegments 84		#integer
NumFrames 2		#integer
DataFrameRate 30		#integer, data frame rate in this file
EulerRotationOrder ZYX
CalibrationUnits mm
RotationUnits Degrees
GlobalAxisofGravity Y
BoneLengthAxis Y
ScaleFactor 1.00
[SegmentNames&Hierarchy]
#CHILD	PARENT
MASTER GLOBAL
root MASTER
chest root
L_mid_tent01 root
R_mid_tent01 root
spine01 root
Bip01_Neck chest
L_humerus chest
R_humerus chest
weapon_bone chest
Bip01_Head Bip01_Neck
eye_left_bone Bip01_Head
eye_right_bone Bip01_Head
L_forearm L_humerus
L_front_hand L_forearm
L_weapon_bone L_forearm
L_front_hand01_01 L_front_hand
L_front_hand02_01 L_front_hand
L_front_hand03_01 L_front_hand
L_front_hand01_02 L_front_hand01_01
L_front_hand02_02 L_front_hand02_01
L_front_hand03_02 L_front_hand03_01
R_forearm R_humerus
R_front_hand R_forearm
R_weapon_bone R_forearm
R_front_hand01_01 R_front_hand
R_front_hand02_01 R_front_hand
R_front_hand03_01 R_front_hand
R_front_hand01_02 R_front_hand01_01
R_front_hand02_02 R_front_hand02_01
R_front_hand03_02 R_front_hand03_01
null_rope01_connect L_mid_tent01
Rope1_Seg01 null_rope01_connect
Rope1_Seg02 Rope1_Seg01
Rope1_Seg03 Rope1_Seg02
Rope1_Seg04 Rope1_Seg03
Rope1_Seg05 Rope1_Seg04
Rope1_Seg06 Rope1_Seg05
Rope1_Seg07 Rope1_Seg06
Rope1_Seg09 Rope1_Seg07
L_mid_hand01 Rope1_Seg09
L_mid_hand02 Rope1_Seg09
L_mid_hand03 Rope1_Seg09
null_rope02_connect R_mid_tent01
Rope2_Seg01 null_rope02_connect
Rope2_Seg02 Rope2_Seg01
Rope2_Seg03 Rope2_Seg02
Rope2_Seg04 Rope2_Seg03
Rope2_Seg05 Rope2_Seg04
Rope2_Seg06 Rope2_Seg05
Rope2_Seg07 Rope2_Seg06
Rope2_Seg09 Rope2_Seg07
R_mid_hand01 Rope2_Seg09
R_mid_hand02 Rope2_Seg09
R_mid_hand03 Rope2_Seg09
spine02 spine01
spine03 spine02
pelvis spine03
null_rope03_connect pelvis
null_rope04_connect pelvis
Rope3_Seg01 null_rope03_connect
Rope3_Seg02 Rope3_Seg01
Rope3_Seg03 Rope3_Seg02
Rope3_Seg04 Rope3_Seg03
Rope3_Seg05 Rope3_Seg04
Rope3_Seg06 Rope3_Seg05
Rope3_Seg07 Rope3_Seg06
Rope3_Seg08 Rope3_Seg07
Rope3_Seg09 Rope3_Seg08
R_rear_hand01 Rope3_Seg09
R_rear_hand02 Rope3_Seg09
R_rear_hand03 Rope3_Seg09
Rope4_Seg01 null_rope04_connect
Rope4_Seg02 Rope4_Seg01
Rope4_Seg03 Rope4_Seg02
Rope4_Seg04 Rope4_Seg03
Rope4_Seg05 Rope4_Seg04
Rope4_Seg06 Rope4_Seg05
Rope4_Seg07 Rope4_Seg06
Rope4_Seg08 Rope4_Seg07
Rope4_Seg09 Rope4_Seg08
L_rear_hand01 Rope4_Seg09
L_rear_hand02 Rope4_Seg09
L_rear_hand03 Rope4_Seg09
[BasePosition]
#SegmentName Tx, Ty, Tz, Rx, Ry, Rz, BoneLength
MASTER 0.000000 0.000000 0.000000 -90.000000 0.000000 0.000000 10.000000 
root 0.000000 0.000000 0.000000 0.000000 0.000000 0.000000 10.000000 
chest 0.000000 0.000000 0.000000 0.000000 0.000000 0.000000 10.000000 
L_mid_tent01 0.000000 0.000000 0.000000 0.000000 0.000000 0.000000 10.000000 
R_mid_tent01 0.000000 0.000000 0.000000 0.000000 0.000000 0.000000 10.000000 
spine01 0.000000 0.000000 0.000000 0.000000 0.000000 0.000000 10.000000 
Bip01_Neck 0.000000 0.000000 0.000000 0.000000 0.000000 0.000000 10.000000 
L_humerus 0.000000 0.000000 0.000000 0.000000 0.000000 0.000000 10.000000 
R_humerus 0.000000 0.000000 0.000000 0.000000 0.000000 0.000000 10.000000 
weapon_bone 0.000000 0.000000 0.000000 0.000000 0.000000 0.000000 10.000000 
Bip01_Head 0.000000 0.000000 0.000000 0.000000 0.000000 0.000000 10.000000 
eye_left_bone 0.000000 0.000000 0.000000 0.000000 0.000000 0.000000 10.000000 
eye_right_bone 0.000000 0.000000 0.000000 0.000000 0.000000 0.000000 10.000000 
L_forearm 0.000000 0.000000 0.000000 0.000000 0.000000 0.000000 10.000000 
L_front_hand 0.000000 0.000000 0.000000 0.000000 0.000000 0.000000 10.000000 
L_weapon_bone 0.000000 0.000000 0.000000 0.000000 0.000000 0.000000 10.000000 
L_front_hand01_01 0.000000 0.000000 0.000000 0.000000 0.000000 0.000000 10.000000 
L_front_hand02_01 0.000000 0.000000 0.000000 0.000000 0.000000 0.000000 10.000000 
L_front_hand03_01 0.000000 0.000000 0.000000 0.000000 0.000000 0.000000 10.000000 
L_front_hand01_02 0.000000 0.000000 0.000000 0.000000 0.000000 0.000000 10.000000 
L_front_hand02_02 0.000000 0.000000 0.000000 0.000000 0.000000 0.000000 10.000000 
L_front_hand03_02 0.000000 0.000000 0.000000 0.000000 0.000000 0.000000 10.000000 
R_forearm 0.000000 0.000000 0.000000 0.000000 0.000000 0.000000 10.000000 
R_front_hand 0.000000 0.000000 0.000000 0.000000 0.000000 0.000000 10.000000 
R_weapon_bone 0.000000 0.000000 0.000000 0.000000 0.000000 0.000000 10.000000 
R_front_hand01_01 0.000000 0.000000 0.000000 0.000000 0.000000 0.000000 10.000000 
R_front_hand02_01 0.000000 0.000000 0.000000 0.000000 0.000000 0.000000 10.000000 
R_front_hand03_01 0.000000 0.000000 0.000000 0.000000 0.000000 0.000000 10.000000 
R_front_hand01_02 0.000000 0.000000 0.000000 0.000000 0.000000 0.000000 10.000000 
R_front_hand02_02 0.000000 0.000000 0.000000 0.000000 0.000000 0.000000 10.000000 
R_front_hand03_02 0.000000 0.000000 0.000000 0.000000 0.000000 0.000000 10.000000 
null_rope01_connect 0.000000 0.000000 0.000000 0.000000 0.000000 0.000000 10.000000 
Rope1_Seg01 0.000000 0.000000 0.000000 0.000000 0.000000 0.000000 10.000000 
Rope1_Seg02 0.000000 0.000000 0.000000 0.000000 0.000000 0.000000 10.000000 
Rope1_Seg03 0.000000 0.000000 0.000000 0.000000 0.000000 0.000000 10.000000 
Rope1_Seg04 0.000000 0.000000 0.000000 0.000000 0.000000 0.000000 10.000000 
Rope1_Seg05 0.000000 0.000000 0.000000 0.000000 0.000000 0.000000 10.000000 
Rope1_Seg06 0.000000 0.000000 0.000000 0.000000 0.000000 0.000000 10.000000 
Rope1_Seg07 0.000000 0.000000 0.000000 0.000000 0.000000 0.000000 10.000000 
Rope1_Seg09 0.000000 0.000000 0.000000 0.000000 0.000000 0.000000 10.000000 
L_mid_hand01 0.000000 0.000000 0.000000 0.000000 0.000000 0.000000 10.000000 
L_mid_hand02 0.000000 0.000000 0.000000 0.000000 0.000000 0.000000 10.000000 
L_mid_hand03 0.000000 0.000000 0.000000 0.000000 0.000000 0.000000 10.000000 
null_rope02_connect 0.000000 0.000000 0.000000 0.000000 0.000000 0.000000 10.000000 
Rope2_Seg01 0.000000 0.000000 0.000000 0.000000 0.000000 0.000000 10.000000 
Rope2_Seg02 0.000000 0.000000 0.000000 0.000000 0.000000 0.000000 10.000000 
Rope2_Seg03 0.000000 0.000000 0.000000 0.000000 0.000000 0.000000 10.000000 
Rope2_Seg04 0.000000 0.000000 0.000000 0.000000 0.000000 0.000000 10.000000 
Rope2_Seg05 0.000000 0.000000 0.000000 0.000000 0.000000 0.000000 10.000000 
Rope2_Seg06 0.000000 0.000000 0.000000 0.000000 0.000000 0.000000 10.000000 
Rope2_Seg07 0.000000 0.000000 0.000000 0.000000 0.000000 0.000000 10.000000 
Rope2_Seg09 0.000000 0.000000 0.000000 0.000000 0.000000 0.000000 10.000000 
R_mid_hand01 0.000000 0.000000 0.000000 0.000000 0.000000 0.000000 10.000000 
R_mid_hand02 0.000000 0.000000 0.000000 0.000000 0.000000 0.000000 10.000000 
R_mid_hand03 0.000000 0.000000 0.000000 0.000000 0.000000 0.000000 10.000000 
spine02 0.000000 0.000000 0.000000 0.000000 0.000000 0.000000 10.000000 
spine03 0.000000 0.000000 0.000000 0.000000 0.000000 0.000000 10.000000 
pelvis 0.000000 0.000000 0.000000 0.000000 0.000000 0.000000 10.000000 
null_rope03_connect 0.000000 0.000000 0.000000 0.000000 0.000000 0.000000 10.000000 
null_rope04_connect 0.000000 0.000000 0.000000 0.000000 0.000000 0.000000 10.000000 
Rope3_Seg01 0.000000 0.000000 0.000000 0.000000 0.000000 0.000000 10.000000 
Rope3_Seg02 0.000000 0.000000 0.000000 0.000000 0.000000 0.000000 10.000000 
Rope3_Seg03 0.000000 0.000000 0.000000 0.000000 0.000000 0.000000 10.000000 
Rope3_Seg04 0.000000 0.000000 0.000000 0.000000 0.000000 0.000000 10.000000 
Rope3_Seg05 0.000000 0.000000 0.000000 0.000000 0.000000 0.000000 10.000000 
Rope3_Seg06 0.000000 0.000000 0.000000 0.000000 0.000000 0.000000 10.000000 
Rope3_Seg07 0.000000 0.000000 0.000000 0.000000 0.000000 0.000000 10.000000 
Rope3_Seg08 0.000000 0.000000 0.000000 0.000000 0.000000 0.000000 10.000000 
Rope3_Seg09 0.000000 0.000000 0.000000 0.000000 0.000000 0.000000 10.000000 
R_rear_hand01 0.000000 0.000000 0.000000 0.000000 0.000000 0.000000 10.000000 
R_rear_hand02 0.000000 0.000000 0.000000 0.000000 0.000000 0.000000 10.000000 
R_rear_hand03 0.000000 0.000000 0.000000 0.000000 0.000000 0.000000 10.000000 
Rope4_Seg01 0.000000 0.000000 0.000000 0.000000 0.000000 0.000000 10.000000 
Rope4_Seg02 0.000000 0.000000 0.000000 0.000000 0.000000 0.000000 10.000000 
Rope4_Seg03 0.000000 0.000000 0.000000 0.000000 0.000000 0.000000 10.000000 
Rope4_Seg04 0.000000 0.000000 0.000000 0.000000 0.000000 0.000000 10.000000 
Rope4_Seg05 0.000000 0.000000 0.000000 0.000000 0.000000 0.000000 10.000000 
Rope4_Seg06 0.000000 0.000000 0.000000 0.000000 0.000000 0.000000 10.000000 
Rope4_Seg07 0.000000 0.000000 0.000000 0.000000 0.000000 0.000000 10.000000 
Rope4_Seg08 0.000000 0.000000 0.000000 0.000000 0.000000 0.000000 10.000000 
Rope4_Seg09 0.000000 0.000000 0.000000 0.000000 0.000000 0.000000 10.000000 
L_rear_hand01 0.000000 0.000000 0.000000 0.000000 0.000000 0.000000 10.000000 
L_rear_hand02 0.000000 0.000000 0.000000 0.000000 0.000000 0.000000 10.000000 
L_rear_hand03 0.000000 0.000000 0.000000 0.000000 0.000000 0.000000 10.000000 
#Beginning of Data. Separated by tabs
#Fr	Tx	Ty	Tz	Rx	Ry	Rz	SF
[MASTER]
15 0.000003 0.000060 3096.014404 0.001660 0.001660 0.001660 3096.014648
16 0.000003 0.000055 3308.967041 0.001660 0.001660 0.001660 3308.967285
[root]
15 -16.502304 -7.372424 1455.651367 -64.425522 -9.358817 -100.712952 1455.763672
16 -16.502304 -8.652913 1456.592407 -62.478951 -8.080863 -101.534279 1456.711548
[chest]
15 -84.512650 -34.090519 0.000000 0.998476 -0.718170 162.429443 91.129311
16 -84.512650 -34.090519 0.000000 1.433217 -0.308488 156.812561 91.129311
[L_mid_tent01]
15 27.299080 22.179058 -249.918686 4.641294 8.786132 82.425583 252.381668
16 27.299078 22.179054 -249.918686 3.785910 12.874277 81.452217 252.381653
[R_mid_tent01]
15 23.228794 24.509907 226.238495 164.226898 -4.936946 76.419708 228.744751
16 23.228794 24.509907 226.238495 163.563202 -19.447184 80.403717 228.744751
[spine01]
15 -0.361383 -0.195265 0.000000 0.002062 0.001122 32.879829 0.410763
16 -0.361383 -0.195265 0.000000 0.002062 0.001122 32.879826 0.410763
[Bip01_Neck]
15 165.484543 71.581718 0.000119 176.643677 -1.657967 43.431911 180.302734
16 165.484543 71.581718 0.000119 176.643677 -1.657967 43.431911 180.302734
[L_humerus]
15 -13.983130 -135.272980 -120.471481 162.769058 21.894859 -66.003822 181.680161
16 -13.983130 -135.272980 -120.471481 161.222458 24.426556 -65.963089 181.680161
[R_humerus]
15 -13.983309 -135.273102 125.287651 -176.955414 -11.787653 -86.163353 184.909012
16 -13.983309 -135.273102 125.287651 -176.641296 -10.027072 -86.927460 184.909012
[weapon_bone]
15 235.964890 -300.705902 0.000000 0.000000 -89.951546 -128.212341 382.234833
16 235.964890 -300.705902 0.000000 0.000000 -89.951546 -128.212341 382.234833
[Bip01_Head]
15 213.553238 185.411972 15.697196 17.990347 6.880139 -43.829926 283.247223
16 213.636154 185.181274 18.674328 27.003536 4.442360 -43.877998 283.339447
[eye_left_bone]
15 -24.626970 125.451866 -64.772606 0.000000 -90.000000 -99.840431 143.318359
16 -24.626970 125.451866 -64.772606 0.000000 -90.000000 -99.840431 143.318359
[eye_right_bone]
15 -24.626970 125.451866 64.327362 0.000000 -89.965736 80.156380 143.117676
16 -24.626970 125.451866 64.327362 0.000000 -89.965736 80.156380 143.117676
[L_forearm]
15 322.776093 0.000000 -0.000119 0.000119 -0.002344 -95.807457 322.776093
16 322.776093 0.000000 -0.000119 0.000119 -0.002344 -95.807457 322.776093
[L_front_hand]
15 241.149185 -0.042021 -3.300071 -178.667953 -1.835447 -27.422350 241.171753
16 241.149185 -0.042021 -3.300071 -178.667953 -1.835447 -27.422342 241.171753
[L_weapon_bone]
15 156.183838 0.000000 0.000000 0.000014 0.000007 0.000001 156.183838
16 156.183838 0.000000 0.000000 0.000014 0.000007 0.000001 156.183838
[L_front_hand01_01]
15 86.095154 20.947098 -0.655860 -0.366594 -0.477154 75.385574 88.609184
16 86.095154 20.947098 -0.655860 -0.366594 -0.477154 75.385574 88.609184
[L_front_hand02_01]
15 86.935165 -11.437475 24.513514 154.399796 -59.883835 -61.369587 91.046425
16 86.935165 -11.437475 24.513514 154.399796 -59.883835 -61.369587 91.046425
[L_front_hand03_01]
15 86.637497 -14.123976 -20.424902 -153.913849 58.118122 -62.702866 90.126129
16 86.637497 -14.123976 -20.424902 -153.913849 58.118130 -62.702866 90.126129
[L_front_hand01_02]
15 71.020905 -0.000179 0.000030 0.000334 -0.002323 -106.379684 71.020905
16 71.020905 -0.000179 0.000030 0.000334 -0.002323 -106.379684 71.020905
[L_front_hand02_02]
15 71.020927 -0.000119 0.000060 0.000334 -0.002323 -106.379684 71.020927
16 71.020927 -0.000119 0.000060 0.000334 -0.002323 -106.379684 71.020927
[L_front_hand03_02]
15 71.020905 -0.000060 0.000060 0.000334 -0.002323 -106.379684 71.020905
16 71.020905 -0.000060 0.000060 0.000334 -0.002323 -106.379684 71.020905
[R_forearm]
15 322.776428 -0.000060 0.000030 0.209504 0.012586 -94.339050 322.776428
16 322.776428 -0.000060 0.000030 0.209504 0.012586 -94.339050 322.776428
[R_front_hand]
15 238.847015 -0.006795 2.210259 -2.635298 -10.645461 -26.312506 238.857239
16 238.847015 -0.006795 2.210259 -2.635298 -10.645460 -26.312500 238.857239
[R_weapon_bone]
15 155.664093 0.002503 -0.000030 0.003487 0.001180 -90.988930 155.664078
16 155.664093 0.002503 -0.000030 0.003487 0.001180 -90.988930 155.664078
[R_front_hand01_01]
15 87.624611 14.231146 22.918642 -154.633499 -59.950619 61.746044 91.683487
16 87.624611 14.231146 22.918642 -154.633484 -59.950619 61.746037 91.683487
[R_front_hand02_01]
15 89.356956 14.367283 -19.491137 154.602661 58.302849 63.744389 92.579636
16 89.356956 14.367283 -19.491137 154.602661 58.302849 63.744389 92.579636
[R_front_hand03_01]
15 87.286232 -22.307278 -0.143439 0.162155 -0.423168 -75.767921 90.091743
16 87.286232 -22.307278 -0.143439 0.162155 -0.423168 -75.767906 90.091743
[R_front_hand01_02]
15 71.020905 0.000060 0.000119 0.002323 -0.000334 106.381714 71.020905
16 71.020905 0.000060 0.000119 0.002323 -0.000334 106.381706 71.020905
[R_front_hand02_02]
15 71.020844 -0.000030 -0.000119 0.002323 -0.000334 106.381714 71.020836
16 71.020844 -0.000030 -0.000119 0.002323 -0.000334 106.381706 71.020836
[R_front_hand03_02]
15 71.020905 0.000000 0.000030 0.002323 -0.000334 106.381714 71.020905
16 71.020905 0.000000 0.000030 0.002323 -0.000334 106.381706 71.020905
[null_rope01_connect]
15 328.732483 0.000000 -0.000238 -35.997189 -67.391960 53.708984 328.732483
16 328.732483 0.000000 -0.000238 -42.468315 -68.167641 59.785240 328.732483
[Rope1_Seg01]
15 0.000026 -0.000050 0.000194 -58.887276 69.346611 122.308281 0.000202
16 0.000025 -0.000051 0.000208 -53.242920 66.417511 126.229507 0.000216
[Rope1_Seg02]
15 139.999863 -0.000179 0.000000 -4.420529 10.541884 -4.656991 139.999863
16 139.999863 -0.000179 0.000000 -5.245595 12.547602 -6.285606 139.999863
[Rope1_Seg03]
15 139.999924 0.000060 -0.000060 -4.617060 8.420993 -3.882631 139.999924
16 139.999924 0.000060 -0.000060 -5.961600 9.883615 -4.755350 139.999924
[Rope1_Seg04]
15 139.999924 -0.000060 -0.000119 -3.647849 5.751908 -2.921714 139.999924
16 139.999924 -0.000060 -0.000119 -5.313816 6.547554 -2.886410 139.999924
[Rope1_Seg05]
15 139.999832 0.000119 -0.000060 -29.491005 17.804735 0.376429 139.999832
16 139.999832 0.000119 -0.000060 -43.836697 21.088602 -0.874938 139.999832
[Rope1_Seg06]
15 139.999954 0.000119 -0.000060 -38.652649 17.069736 11.900421 139.999954
16 139.999954 0.000119 -0.000060 -45.447102 18.600977 18.486246 139.999954
[Rope1_Seg07]
15 139.999985 0.000060 0.000000 -12.204950 2.991706 9.505576 139.999985
16 139.999985 0.000060 0.000000 -8.927370 -0.123124 11.519686 139.999985
[Rope1_Seg09]
15 121.602913 0.000119 -0.000089 -89.793175 -1.359789 0.847147 121.602913
16 121.602913 0.000119 -0.000089 -89.793175 -1.359789 0.847147 121.602913
[L_mid_hand01]
15 103.859421 1.038730 8.195221 130.544373 -67.584534 -38.866943 104.187431
16 103.859421 1.038730 8.195221 130.544342 -67.584518 -38.866936 104.187431
[L_mid_hand02]
15 105.572853 -4.139662 -10.864139 -168.923172 43.409309 -73.498886 106.211075
16 105.572853 -4.139662 -10.864139 -168.923172 43.409309 -73.498894 106.211075
[L_mid_hand03]
15 104.641464 17.579376 -3.913581 -6.012627 17.808174 74.893669 106.179977
16 104.641464 17.579376 -3.913581 -6.012626 17.808172 74.893661 106.179977
[null_rope02_connect]
15 328.732849 0.000179 -0.000119 -153.974152 65.195045 -3.508934 328.732849
16 328.732849 0.000179 -0.000119 -155.301880 48.496380 -4.929255 328.732849
[Rope2_Seg01]
15 0.000003 0.000106 0.000000 77.415764 46.737297 14.579563 0.000106
16 -0.000002 0.000106 0.000000 64.646133 46.191185 -1.133846 0.000106
[Rope2_Seg02]
15 139.999741 -0.000060 -0.000119 0.321686 1.484560 2.172365 139.999756
16 139.999741 -0.000060 -0.000119 1.409059 5.478992 3.426847 139.999756
[Rope2_Seg03]
15 140.000107 0.000030 0.000000 0.404370 1.173265 3.087528 140.000107
16 140.000107 0.000030 0.000000 1.442716 4.649495 5.343935 140.000107
[Rope2_Seg04]
15 139.999802 0.000000 -0.000060 0.872391 -2.709456 8.259952 139.999802
16 139.999802 0.000000 -0.000060 1.305026 4.570842 5.951764 139.999802
[Rope2_Seg05]
15 139.999985 -0.000060 0.000119 -1.002445 11.608632 -7.612385 139.999985
16 139.999985 -0.000060 0.000119 -1.242635 13.878948 -10.482241 139.999985
[Rope2_Seg06]
15 139.999893 -0.000030 -0.000119 -0.697880 15.953903 -14.899769 139.999893
16 139.999893 -0.000030 -0.000119 0.360203 11.580593 -10.415545 139.999893
[Rope2_Seg07]
15 139.999893 0.000060 -0.000060 0.863831 6.808700 -5.766104 139.999893
16 139.999893 0.000060 -0.000060 0.719761 6.148226 -4.810023 139.999893
[Rope2_Seg09]
15 121.338966 0.000089 -0.000060 33.793236 -1.359788 -0.847141 121.338966
16 121.338966 0.000089 -0.000060 33.793236 -1.359788 -0.847141 121.338966
[R_mid_hand01]
15 104.680779 11.144459 -10.335981 -16.212063 45.237247 70.462852 105.778534
16 104.680779 11.144459 -10.335981 -16.212063 45.237247 70.462852 105.778534
[R_mid_hand02]
15 104.070427 2.443552 8.231699 49.067368 -67.749771 39.286453 104.424065
16 104.070427 2.443552 8.231699 49.067371 -67.749794 39.286461 104.424065
[R_mid_hand03]
15 106.028137 -11.221827 -5.996406 -177.101105 15.551026 -76.585571 106.788818
16 106.028137 -11.221827 -5.996406 -177.101105 15.551026 -76.585571 106.788818
[spine02]
15 129.756927 0.001550 0.000119 -1.023899 -3.926965 6.770993 129.756927
16 129.756927 0.001550 0.000119 -1.023899 -3.926965 6.770993 129.756927
[spine03]
15 78.614052 0.081741 -4.899001 1.040681 4.146420 4.212376 78.766586
16 78.614044 0.081741 -4.899001 1.040680 4.146420 4.212376 78.766579
[pelvis]
15 169.435242 0.051022 0.000000 0.019518 -0.190233 -10.721435 169.435257
16 169.435242 0.051022 0.000000 0.019518 -0.190233 -10.721436 169.435257
[null_rope03_connect]
15 -1.257226 -2.466202 137.391083 -13.077581 -64.379181 81.768944 137.418976
16 -1.257226 -2.466202 137.391083 -13.983380 -62.178616 81.795738 137.418976
[null_rope04_connect]
15 -1.259640 -2.480268 -137.844437 -13.077581 -64.379181 81.768944 137.872513
16 -1.259640 -2.480268 -137.844437 -13.983380 -62.178616 81.795738 137.872513
[Rope3_Seg01]
15 0.000000 0.000000 0.000000 31.911283 -34.964367 -99.987541 0.000000
16 0.000000 0.000000 0.000000 28.690798 -32.404369 -96.259056 0.000000
[Rope3_Seg02]
15 139.999924 -0.000119 0.000060 4.269933 -2.903759 25.274778 139.999924
16 139.999924 -0.000119 0.000060 3.365866 -2.828945 21.073111 139.999924
[Rope3_Seg03]
15 139.999924 -0.000119 0.000119 -2.444043 -1.451699 32.112167 139.999924
16 139.999924 -0.000119 0.000119 -1.302074 -1.032418 27.688578 139.999924
[Rope3_Seg04]
15 139.999924 0.000119 0.000000 -6.161970 -1.631447 18.149784 139.999924
16 139.999924 0.000119 0.000000 -4.741882 -0.180596 18.814096 139.999924
[Rope3_Seg05]
15 139.999924 -0.000238 0.000060 -10.192519 -1.723212 17.593191 139.999924
16 139.999924 -0.000238 0.000060 -9.693994 -5.273574 14.706223 139.999924
[Rope3_Seg06]
15 139.999893 -0.000119 -0.000060 -22.411049 -4.802337 20.019659 139.999893
16 139.999893 -0.000119 -0.000060 -17.771305 -11.349333 15.875489 139.999893
[Rope3_Seg07]
15 139.999771 0.000060 -0.000119 -18.078974 -6.798726 9.323684 139.999771
16 139.999771 0.000060 -0.000119 -12.417740 -9.893249 8.545789 139.999771
[Rope3_Seg08]
15 139.999985 -0.000060 0.000000 -9.618652 -4.941877 3.587543 139.999985
16 139.999985 -0.000060 0.000000 -6.187398 -6.250391 3.574326 139.999985
[Rope3_Seg09]
15 90.185997 -0.000179 -0.000060 89.793228 -1.359877 -0.847183 90.185997
16 90.185997 -0.000179 -0.000060 89.793228 -1.359877 -0.847183 90.185997
[R_rear_hand01]
15 103.366196 -6.073594 -10.757982 -177.714203 24.565960 -73.910950 104.101845
16 103.366196 -6.073594 -10.757982 -177.714203 24.565958 -73.910942 104.101845
[R_rear_hand02]
15 100.509819 12.039542 -7.992327 -12.874829 36.868488 72.167213 101.543350
16 100.509819 12.039542 -7.992327 -12.874827 36.868488 72.167213 101.543350
[R_rear_hand03]
15 101.539970 5.215704 5.435467 71.484581 -71.816628 21.513813 101.819031
16 101.539970 5.215704 5.435467 71.484581 -71.816643 21.513824 101.819031
[Rope4_Seg01]
15 0.000010 0.000026 -0.000104 -102.118980 10.203569 -135.296188 0.000108
16 0.000010 0.000025 -0.000101 -91.827850 -3.700801 -141.226181 0.000104
[Rope4_Seg02]
15 139.999985 0.000060 0.000119 -14.519883 1.738576 20.065191 139.999985
16 139.999985 0.000060 0.000119 -11.835340 5.657219 17.127953 139.999985
[Rope4_Seg03]
15 139.999924 0.000000 -0.000238 -8.225748 -0.367860 9.091780 139.999924
16 139.999924 0.000000 -0.000238 -13.417575 1.059165 12.602228 139.999924
[Rope4_Seg04]
15 139.999985 0.000000 0.000119 -11.378899 -4.057124 10.340141 139.999985
16 139.999985 0.000000 0.000119 -16.052591 -1.612615 12.123796 139.999985
[Rope4_Seg05]
15 139.999802 -0.000060 -0.000119 -15.275998 -10.564650 13.364867 139.999802
16 139.999802 -0.000060 -0.000119 -26.018774 -6.935153 18.153288 139.999802
[Rope4_Seg06]
15 139.999924 0.000000 0.000060 -6.994150 -8.657457 6.586855 139.999924
16 139.999924 0.000000 0.000060 -12.590483 -8.832298 8.618816 139.999924
[Rope4_Seg07]
15 139.999802 0.000000 0.000000 -2.878115 -5.029688 3.094683 139.999802
16 139.999802 0.000000 0.000000 -4.539260 -5.122940 3.172925 139.999802
[Rope4_Seg08]
15 139.999924 0.000000 0.000119 -2.988724 -3.096286 1.700887 139.999924
16 139.999924 0.000000 0.000119 -3.747889 -3.084161 1.592626 139.999924
[Rope4_Seg09]
15 90.185791 0.000060 0.000060 -135.617828 2.228885 0.850567 90.185791
16 90.185791 0.000060 0.000060 -135.617828 2.228885 0.850567 90.185791
[L_rear_hand01]
15 101.696655 -8.392275 -7.654577 -12.874829 -36.868488 107.832764 102.329041
16 101.696655 -8.392275 -7.654577 -12.874827 -36.868488 107.832764 102.329041
[L_rear_hand02]
15 102.726799 -1.568258 5.773216 71.484581 71.816628 158.486160 102.900848
16 102.726799 -1.568258 5.773216 71.484581 71.816643 158.486160 102.900848
[L_rear_hand03]
15 104.552910 9.721220 -10.420293 -177.714203 -24.565960 -106.089035 105.519653
16 104.552910 9.721220 -10.420293 -177.714203 -24.565958 -106.089043 105.519653
